{
	"asset":{
		"generator":"Khronos glTF Blender I/O v3.6.27",
		"version":"2.0"
	},
	"scene":0,
	"scenes":[
		{
			"name":"Scene",
			"nodes":[
				0
			]
		}
	],
	"nodes":[
		{
			"mesh":0,
			"name":"Sphere"
		}
	],
	"materials":[
		{
			"doubleSided":true,
			"name":"Material.003",
			"pbrMetallicRoughness":{
				"baseColorTexture":{
					"index":0
				},
				"metallicFactor":0,
				"roughnessFactor":0.5
			}
		}
	],
	"meshes":[
		{
			"name":"Sphere",
			"primitives":[
				{
					"attributes":{
						"POSITION":0,
						"NORMAL":1,
						"TEXCOORD_0":2
					},
					"indices":3,
					"material":0
				}
			]
		}
	],
	"textures":[
		{
			"sampler":0,
			"source":0
		}
	],
	"images":[
		{
			"bufferView":4,
			"mimeType":"image/png",
			"name":"sphere"
		}
	],
	"accessors":[
		{
			"bufferView":0,
			"componentType":5126,
			"count":2284,
			"max":[
				0.9683842658996582,
				0.9957292675971985,
				0.9683842658996582
			],
			"min":[
				-0.9683842062950134,
				-0.9957292079925537,
				-0.9683842062950134
			],
			"type":"VEC3"
		},
		{
			"bufferView":1,
			"componentType":5126,
			"count":2284,
			"type":"VEC3"
		},
		{
			"bufferView":2,
			"componentType":5126,
			"count":2284,
			"type":"VEC2"
		},
		{
			"bufferView":3,
			"componentType":5123,
			"count":11904,
			"type":"SCALAR"
		}
	],
	"bufferViews":[
		{
			"buffer":0,
			"byteLength":27408,
			"byteOffset":0,
			"target":34962
		},
		{
			"buffer":0,
			"byteLength":27408,
			"byteOffset":27408,
			"target":34962
		},
		{
			"buffer":0,
			"byteLength":18272,
			"byteOffset":54816,
			"target":34962
		},
		{
			"buffer":0,
			"byteLength":23808,
			"byteOffset":73088,
			"target":34963
		},
		{
			"buffer":0,
			"byteLength":614758,
			"byteOffset":96896
		}
	],
	"samplers":[
		{
			"magFilter":9729,
			"minFilter":9987
		}
	],
	"buffers":[
		{
			"byteLength":711656,
			"uri":"data:application/octet-stream;base64,"
		}
	]
}
